#tb 0: 2/25
#media_type 0: video
#codec_id 0: rawvideo
#dimensions 0: 488x488
#sar 0: 0/1
0,          0,          0,        1,   952576, 0x5f74d3ae
0,          1,          1,        1,   952576, 0x8b0f6cfe
0,          2,          2,        1,   952576, 0x3e47771e
0,          3,          3,        1,   952576, 0x63816e85
0,          4,          4,        1,   952576, 0xf7a5d79a
0,          5,          5,        6,   952576, 0x50c75e53
0,         11,         11,        1,   952576, 0x54d4cdd3
0,         12,         12,        1,   952576, 0x00648e70
0,         13,         13,        2,   952576, 0xd9f7f652
0,         15,         15,        2,   952576, 0x34c15d97
0,         17,         17,        2,   952576, 0x94b9ab85
0,         19,         19,        7,   952576, 0xa702612f
0,         26,         26,        1,   952576, 0xd248d21e
0,         27,         27,        1,   952576, 0xc0f7ffcf
0,         28,         28,        9,   952576, 0x4e281a20
0,         37,         37,        1,   952576, 0x114617ec
0,         38,         38,        1,   952576, 0x79ba99a5
0,         39,         39,        9,   952576, 0x79cb003d
